# AST/ASF file generated using VICON BodyLanguage
# -----------------------------------------------
:version 1.10
:name VICON
:units
  mass 1.0
  length 0.45
  angle deg
:documentation
   .ast/.asf automatically generated from VICON data using
   VICON BodyBuilder and BodyLanguage model FoxedUp or BRILLIANT.MOD
:root
   order TX TY TZ RX RY RZ
   axis XYZ
   position 0 0 0  
   orientation 0 0 0 
:bonedata
  begin
     id 1 
     name lhipjoint
     direction 0.646657 -0.683706 0.338203 
     length 2.4948 
     axis 0 0 0  XYZ
  end
  begin
     id 2 
     name lfemur
     direction 0.34202 -0.939693 0  
     length 6.79491  
     axis 0 0 20  XYZ
    dof rx ry rz
    limits (-160.0 20.0)
           (-70.0 70.0)
           (-60.0 70.0)
  end
  begin
     id 3 
     name ltibia
     direction 0.34202 -0.939693 0   
     length 7.56807   
     axis 0 0 20   XYZ
    dof rx
    limits (-10.0 170.0)
  end
  begin
     id 4 
     name lfoot
     direction 0.0679796 -0.186772 0.980048   
     length 2.53018   
     axis -90 7.62852e-016 20   XYZ
    dof rx rz
    limits (-45.0 90.0)
           (-70.0 20.0)
  end
  begin
     id 5 
     name ltoes
     direction 1.53625e-011 -4.21881e-011 1   
     length 1.26912   
     axis -90 7.62852e-016 20   XYZ
    dof rx
    limits (-90.0 20.0)
  end
  begin
     id 6 
     name rhipjoint
     direction -0.618868 -0.704065 0.348274   
     length 2.42265  
     axis 0 0 0  XYZ 
  end
  begin
     id 7 
     name rfemur
     direction -0.34202 -0.939693 0   
     length 6.73814   
     axis 0 0 -20   XYZ
    dof rx ry rz
    limits (-160.0 20.0)
           (-70.0 70.0)
           (-70.0 60.0)
  end
  begin
     id 8 
     name rtibia
     direction -0.34202 -0.939693 0   
     length 7.66799   
     axis 0 0 -20   XYZ
    dof rx
    limits (-10.0 170.0)
 end
 begin
     id 9 
     name rfoot
     direction -0.0727352 -0.199838 0.977125   
     length 2.57224  
     axis -90 -7.62852e-016 -20   XYZ
    dof rx rz
    limits (-45.0 90.0)
           (-20.0 70.0)
  end
  begin
     id 10 
     name rtoes
     direction -1.53501e-011 -4.21858e-011 1   
     length 1.28858   
     axis -90 -7.62852e-016 -20   XYZ
    dof rx
    limits (-90.0 20.0)
  end
  begin
     id 11 
     name lowerback
     direction -0.0172471 0.995767 -0.0902851   
     length 2.20206   
     axis 0 0 0   XYZ
    dof rx ry rz
    limits (-20.0 45.0)
           (-30.0 30.0)
           (-30.0 30.0)
  end
  begin
     id 12 
     name upperback
     direction -0.000110737 0.999714 0.0239043   
     length 2.19523   
     axis 0 0 0   XYZ
    dof rx ry rz
    limits (-20.0 45.0)
           (-30.0 30.0)
           (-30.0 30.0)
  end
  begin
     id 13 
     name thorax
     direction 0.00704869 0.997783 0.0661741   
     length 2.21977   
     axis 0 0 0   XYZ
    dof rx ry rz
    limits (-20.0 45.0)
           (-30.0 30.0)
           (-30.0 30.0)
  end
  begin
     id 14 
     name lowerneck
     direction -0.00407501 0.995527 0.0943846   
     length 1.83142   
     axis 0 0 0   XYZ
    dof rx ry rz
    limits (-20.0 45.0)
           (-30.0 30.0)
           (-30.0 30.0)
  end
  begin
     id 15 
     name upperneck
     direction 0.0640586 0.986486 -0.150807   
     length 1.84616   
     axis 0 0 0   XYZ
    dof rx ry rz
    limits (-20.0 45.0)
           (-30.0 30.0)
           (-30.0 30.0)
  end
  begin
     id 16
     name head
     direction 0.0188017 0.99791 -0.0618239  
     length 1.85932  
     axis 0 0 0   XYZ
    dof rx ry rz
    limits (-20.0 45.0)
           (-30.0 30.0)
           (-30.0 30.0)
  end
  begin
     id 17 
     name lclavicle
     direction 0.976074 0.206905 0.066852  
     length 3.81043  
     axis 0 0 0   XYZ
    dof ry rz
    limits (-20.0 10.0)
           (0.0 20.0)
  end
  begin
     id 18 
     name lhumerus
     direction 1 -4.48971e-011 1.86916e-027   
     length 5.37587   
     axis 180 -30 -90   XYZ
    dof rx ry rz
    limits (-60.0 90.0)
           (-90.0 90.0)
           (-90.0 90.0)
  end
  begin
     id 19
     name lradius
     direction 1 -4.48968e-011 1.69187e-027   
     length 3.35977   
     axis 180 -30 -90   XYZ
    dof rx
    limits (-10.0 170.0)
  end
  begin
     id 20
     name lwrist
     direction 1 -4.48968e-011 5.8978e-027   
     length 1.67988   
     axis -3.27506e-015 90 90   XYZ
    dof ry
    limits (-180.0 0.0)
 end
  begin
     id 21 
     name lhand
     direction 1 -4.49028e-011 1.18071e-026   
     length 0.561859   
     axis -7.52654e-015 90 90   XYZ
    dof rx rz
    limits (-90.0 90.0)
           (-45.0 45.0)
  end
  begin
     id 22 
     name lfingers
     direction 1 -4.48927e-011 2.35758e-026   
     length 0.452985   
     axis -1.50534e-014 90 90   XYZ
    dof rx
    limits (0.0 90.0)
  end
  begin
     id 23
     name lthumb
     direction 0.707107 -6.34898e-011 0.707107   
     length 0.650399   
     axis -90 45 5.69224e-014   XYZ
    dof rx rz
    limits (-45.0 45.0)
           (-45.0 45.0)
  end
  begin
     id 24 
     name rclavicle
     direction -0.988403 0.151789 0.00439714   
     length 3.6942  
     axis 0 0 0   XYZ 
    dof ry rz
    limits (-10.0 20.0)
           (-20.0 0.0)
  end
  begin
     id 25 
     name rhumerus
     direction -1 -4.48978e-011 1.62495e-027  
     length 5.22819   
     axis 180 30 90   XYZ
    dof rx ry rz
    limits (-90.0 60.0)
           (-90.0 90.0)
           (-90.0 90.0)
  end
  begin
     id 26 
     name rradius
     direction -1 -4.48961e-011 3.47796e-027   
     length 3.40764   
     axis 180 30 90   XYZ
    dof rx
    limits (-10.0 170.0)
  end
  begin
     id 27 
     name rwrist
     direction -1 -4.48949e-011 5.89602e-027   
     length 1.70382   
     axis -3.27506e-015 -90 -90   XYZ
    dof ry
    limits (-180.0 0.0)
  end
  begin
     id 28
     name rhand
     direction -1 -4.48977e-011 1.17973e-026   
     length 0.583255   
     axis -7.52654e-015 -90 -90   XYZ
    dof rx rz
    limits (-90.0 90.0)
           (-45.0 45.0)
  end
  begin
     id 29
     name rfingers
     direction -1 -4.49099e-011 2.36408e-026   
     length 0.470235   
     axis -1.50534e-014 -90 -90   XYZ
    dof rx
    limits (0.0 90.0)
  end
  begin
     id 30
     name rthumb
     direction -0.707107 -6.35011e-011 0.707107   
     length 0.675167   
     axis -90 -45 -5.69224e-014   XYZ
    dof rx rz
    limits (-45.0 45.0)
           (-45.0 45.0)
  end
:hierarchy
  begin
    root lhipjoint rhipjoint lowerback
    lhipjoint lfemur
    lfemur ltibia
    ltibia lfoot
    lfoot ltoes
    rhipjoint rfemur
    rfemur rtibia
    rtibia rfoot
    rfoot rtoes
    lowerback upperback
    upperback thorax
    thorax lowerneck lclavicle rclavicle
    lowerneck upperneck
    upperneck head
    lclavicle lhumerus
    lhumerus lradius
    lradius lwrist
    lwrist lhand lthumb
    lhand lfingers
    rclavicle rhumerus
    rhumerus rradius
    rradius rwrist
    rwrist rhand rthumb
    rhand rfingers
  end

#!OML:ASF G:\JayActor3\Patient Classification 1\Patient 1\Session 2\male.ASF
:FULLY-SPECIFIED
:DEGREES
1939
root 49.2899 15.9428 -8.0004 362.003 -35.7904 -1081.25
lowerback 11.532 -0.474511 -6.86704
upperback 7.65315 -1.38177 -0.88997
thorax 1.72067 -0.984664 3.05776
lowerneck 5.0492 -12.8681 -11.5246
upperneck -6.33402 -17.425 24.7598
head 0.687457 -9.35081 9.17372
rclavicle 6.36111e-014 -2.78299e-014
rhumerus -27.3363 18.4309 -80.4205
rradius 65.2801
rwrist 2.4607
rhand -41.8765 19.0989
rfingers 7.12502
rthumb -14.7761 -10.3543
lclavicle 6.36111e-014 -2.78299e-014
lhumerus -3.88228 -27.1708 70.2604
lradius 79.1847
lwrist 16.6673
lhand -32.0927 22.3171
lfingers 7.12502
lthumb -5.33822 52.2299
rfemur -38.4684 -3.18892 15.4964
rtibia 54.5801
rfoot -19.7436 -7.78227
rtoes 10.7983
lfemur -18.7331 19.0055 -22.0162
ltibia 44.3175
lfoot -24.2386 12.7382
ltoes -9.41931
1940
root 49.33 15.9286 -7.99983 361.968 -36.6603 -1081.27
lowerback 11.6953 -0.475971 -6.93625
upperback 7.78357 -1.4055 -0.843443
thorax 1.77763 -1.00864 3.1485
lowerneck 5.16899 -12.9282 -11.5056
upperneck -6.71394 -17.4575 24.9395
head 0.583746 -9.40073 9.24924
rclavicle -6.36111e-015 1.90833e-014
rhumerus -26.9452 17.9754 -79.9849
rradius 65.7213
rwrist 2.49447
rhand -41.8407 19.0127
rfingers 7.12502
rthumb -14.7417 -10.4431
lclavicle -6.36111e-015 1.90833e-014
lhumerus -3.03609 -27.5977 70.1471
lradius 79.2787
lwrist 16.7134
lhand -32.0175 22.261
lfingers 7.12502
lthumb -5.26566 52.1756
rfemur -38.7714 -3.40093 15.3292
rtibia 54.4183
rfoot -19.7877 -8.45466
rtoes 10.7949
lfemur -18.8763 19.403 -22.176
ltibia 44.6285
lfoot -24.4463 13.1921
ltoes -9.35033
1941
root 49.3696 15.9137 -7.99862 361.945 -37.5391 -1081.29
lowerback 11.8565 -0.468392 -6.98766
upperback 7.90941 -1.41609 -0.802174
thorax 1.82887 -1.02518 3.22268
lowerneck 5.25945 -12.9554 -11.4715
upperneck -7.08257 -17.4425 25.1028
head 0.476318 -9.42506 9.31968
rclavicle 7.95139e-015 -4.45278e-014
rhumerus -26.565 17.5226 -79.5683
rradius 66.1715
rwrist 2.55477
rhand -41.7945 18.9303
rfingers 7.12502
rthumb -14.6972 -10.5288
lclavicle 7.95139e-015 -4.45278e-014
lhumerus -2.19713 -28.0121 70.0082
lradius 79.3727
lwrist 16.7372
lhand -31.8967 22.1347
lfingers 7.12502
lthumb -5.14901 52.0521
rfemur -39.1008 -3.61274 15.17
rtibia 54.2478
rfoot -19.7752 -9.08627
rtoes 10.8901
lfemur -19.0368 19.8092 -22.3382
ltibia 44.9425
lfoot -24.6561 13.6366
ltoes -9.2789
1942
root 49.4096 15.8979 -7.99673 361.934 -38.4293 -1081.3
lowerback 12.0281 -0.455526 -7.02229
upperback 8.02478 -1.41973 -0.762747
thorax 1.86214 -1.03683 3.28542
lowerneck 5.32957 -12.9523 -11.4427
upperneck -7.44219 -17.3852 25.2591
head 0.366853 -9.42685 9.39126
rclavicle 3.26007e-014 -3.49861e-014
rhumerus -26.1957 17.0937 -79.163
rradius 66.6215
rwrist 2.65215
rhand -41.7636 18.8427
rfingers 7.12502
rthumb -14.6674 -10.6185
lclavicle 3.26007e-014 -3.49861e-014
lhumerus -1.38497 -28.41 69.8512
lradius 79.484
lwrist 16.7622
lhand -31.7819 21.9828
lfingers 7.12502
lthumb -5.03818 51.9029
rfemur -39.4621 -3.82927 15.0194
rtibia 54.0732
rfoot -19.6906 -9.67202
rtoes 11.1284
lfemur -19.2206 20.2203 -22.5094
ltibia 45.262
lfoot -24.8686 14.0805
ltoes -9.20039
1943
root 49.4475 15.8824 -7.99417 361.926 -39.3045 -1081.31
lowerback 12.2041 -0.440566 -7.05998
upperback 8.13151 -1.42175 -0.725632
thorax 1.88393 -1.04722 3.34761
lowerneck 5.39335 -12.927 -11.4003
upperneck -7.79067 -17.2967 25.4009
head 0.252856 -9.41241 9.45877
rclavicle 3.06128e-014 2.22639e-014
rhumerus -25.84 16.6746 -78.7815
rradius 67.0575
rwrist 2.80068
rhand -41.7551 18.7816
rfingers 7.12502
rthumb -14.6592 -10.6803
lclavicle 3.06128e-014 2.22639e-014
lhumerus -0.608515 -28.8064 69.6706
lradius 79.6222
lwrist 16.7845
lhand -31.6709 21.8206
lfingers 7.12502
lthumb -4.93095 51.7432
rfemur -39.8275 -4.04938 14.8781
rtibia 53.8951
rfoot -19.5512 -10.1874
rtoes 11.6377
lfemur -19.4057 20.6383 -22.6759
ltibia 45.581
lfoot -25.0834 14.4955
ltoes -9.11181
1944
root 49.4838 15.8669 -7.99088 361.92 -40.1661 -1081.32
lowerback 12.3871 -0.426208 -7.09767
upperback 8.22645 -1.42568 -0.691933
thorax 1.88972 -1.05765 3.40687
lowerneck 5.43758 -12.8831 -11.3477
upperneck -8.10521 -17.1853 25.5189
head 0.143854 -9.38351 9.51666
rclavicle -4.77083e-014 1.35174e-014
rhumerus -25.491 16.2678 -78.4191
rradius 67.4684
rwrist 2.97429
rhand -41.7614 18.759
rfingers 7.12502
rthumb -14.6653 -10.7023
lclavicle -4.77083e-014 1.35174e-014
lhumerus 0.125974 -29.1929 69.4717
lradius 79.7898
lwrist 16.7908
lhand -31.5733 21.6696
lfingers 7.12502
lthumb -4.83668 51.5944
rfemur -40.2018 -4.2711 14.7435
rtibia 53.7144
rfoot -19.3503 -10.6736
rtoes 12.2764
lfemur -19.5948 21.0565 -22.845
ltibia 45.8935
lfoot -25.2864 14.9057
ltoes -9.06716
1945
root 49.5181 15.8521 -7.98703 361.92 -41.0088 -1081.32
lowerback 12.5726 -0.414427 -7.14252
upperback 8.31341 -1.43429 -0.654854
thorax 1.88681 -1.07031 3.47443
lowerneck 5.45485 -12.8185 -11.2823
upperneck -8.3868 -17.0473 25.6004
head 0.0384999 -9.3372 9.5601
rclavicle 5.48646e-014 -4.77083e-014
rhumerus -25.1338 15.878 -78.0748
rradius 67.8468
rwrist 3.1655
rhand -41.8014 18.7498
rfingers 7.12502
rthumb -14.7038 -10.7088
lclavicle 5.48646e-014 -4.77083e-014
lhumerus 0.820892 -29.5656 69.2625
lradius 79.985
lwrist 16.7767
lhand -31.5299 21.5633
lfingers 7.12502
lthumb -4.79485 51.4891
rfemur -40.5779 -4.48942 14.6211
rtibia 53.5292
rfoot -19.0995 -11.1412
rtoes 13.0076
lfemur -19.7813 21.4725 -23.0085
ltibia 46.193
lfoot -25.48 15.2993
ltoes -9.03657
1946
root 49.5499 15.8384 -7.98269 361.921 -41.8228 -1081.32
lowerback 12.7583 -0.404197 -7.19357
upperback 8.39811 -1.44581 -0.613224
thorax 1.8824 -1.08476 3.55066
lowerneck 5.44577 -12.7415 -11.1939
upperneck -8.63686 -16.8936 25.6425
head -0.0628604 -9.2791 9.58547
rclavicle 3.45885e-014 -1.03368e-014
rhumerus -24.7619 15.4989 -77.7452
rradius 68.1904
rwrist 3.36218
rhand -41.8733 18.7203
rfingers 7.12502
rthumb -14.7731 -10.7332
lclavicle 3.45885e-014 -1.03368e-014
lhumerus 1.48595 -29.9331 69.0402
lradius 80.2045
lwrist 16.7193
lhand -31.5667 21.5295
lfingers 7.12502
lthumb -4.83037 51.4544
rfemur -40.9447 -4.70342 14.5141
rtibia 53.3379
rfoot -18.8036 -11.6181
rtoes 13.7556
lfemur -19.9591 21.8757 -23.1591
ltibia 46.4813
lfoot -25.6657 15.6733
ltoes -9.00689
1947
root 49.5801 15.8252 -7.97789 361.933 -42.6127 -1081.33
lowerback 12.942 -0.397422 -7.24174
upperback 8.48133 -1.46165 -0.567701
thorax 1.87824 -1.10139 3.62991
lowerneck 5.39834 -12.6506 -11.0772
upperneck -8.86535 -16.7193 25.6342
head -0.163386 -9.20617 9.58812
rclavicle 3.53837e-014 -1.27222e-014
rhumerus -24.3612 15.1464 -77.418
rradius 68.5036
rwrist 3.53476
rhand -41.9643 18.6754
rfingers 7.12502
rthumb -14.8607 -10.7716
lclavicle 3.53837e-014 -1.27222e-014
lhumerus 2.12636 -30.2754 68.8069
lradius 80.4425
lwrist 16.6107
lhand -31.5836 21.4937
lfingers 7.12502
lthumb -4.84664 51.4183
rfemur -41.313 -4.91578 14.4237
rtibia 53.1385
rfoot -18.4568 -12.1153
rtoes 14.4686
lfemur -20.1413 22.2598 -23.3034
ltibia 46.7646
lfoot -25.8453 16.0381
ltoes -8.97561
1948
root 49.6097 15.8121 -7.97266 361.964 -43.3888 -1081.35
lowerback 13.1172 -0.390759 -7.27624
upperback 8.56437 -1.47567 -0.518905
thorax 1.87804 -1.11684 3.70465
lowerneck 5.3263 -12.5501 -10.9382
upperneck -9.08876 -16.5294 25.5892
head -0.266909 -9.12293 9.5746
rclavicle -1.19271e-014 2.06736e-014
rhumerus -23.9327 14.815 -77.0883
rradius 68.7959
rwrist 3.67664
rhand -42.0581 18.6246
rfingers 7.12502
rthumb -14.9511 -10.8157
lclavicle -1.19271e-014 2.06736e-014
lhumerus 2.7511 -30.6005 68.5609
lradius 80.6992
lwrist 16.4709
lhand -31.6091 21.4671
lfingers 7.12502
lthumb -4.87127 51.3911
rfemur -41.6973 -5.12299 14.3525
rtibia 52.9299
rfoot -18.0542 -12.6331
rtoes 15.1238
lfemur -20.3471 22.616 -23.4488
ltibia 47.053
lfoot -26.0245 16.4066
ltoes -8.92485
1949
root 49.6388 15.7985 -7.96696 362.009 -44.155 -1081.36
lowerback 13.2814 -0.381576 -7.29853
upperback 8.64844 -1.48431 -0.469084
thorax 1.88388 -1.12944 3.77287
lowerneck 5.24761 -12.4393 -10.7765
upperneck -9.33459 -16.3199 25.5162
head -0.383913 -9.0302 9.55077
rclavicle -1.63003e-014 1.03368e-014
rhumerus -23.4791 14.5039 -76.7541
rradius 69.0758
rwrist 3.77915
rhand -42.1256 18.5875
rfingers 7.12502
rthumb -15.0161 -10.848
lclavicle -1.63003e-014 1.03368e-014
lhumerus 3.36721 -30.9058 68.303
lradius 80.9684
lwrist 16.2875
lhand -31.5983 21.4567
lfingers 7.12502
lthumb -4.86083 51.3809
rfemur -42.0974 -5.32641 14.2956
rtibia 52.7105
rfoot -17.6198 -13.1542
rtoes 15.6776
lfemur -20.5788 22.943 -23.6024
ltibia 47.3519
lfoot -26.207 16.7845
ltoes -8.85571
1950
root 49.6678 15.7842 -7.9608 362.066 -44.9187 -1081.38
lowerback 13.4422 -0.369833 -7.30927
upperback 8.73323 -1.48827 -0.417854
thorax 1.89148 -1.13946 3.83556
lowerneck 5.16868 -12.322 -10.6191
upperneck -9.60069 -16.0991 25.4385
head -0.508286 -8.93267 9.52768
rclavicle 3.81667e-014 -4.37326e-014
rhumerus -23.0107 14.2205 -76.4153
rradius 69.3556
rwrist 3.85884
rhand -42.1802 18.5474
rfingers 7.12502
rthumb -15.0687 -10.8842
lclavicle 3.81667e-014 -4.37326e-014
lhumerus 3.96717 -31.1885 68.0373
lradius 81.2466
lwrist 16.0977
lhand -31.6121 21.4487
lfingers 7.12502
lthumb -4.87418 51.3727
rfemur -42.5088 -5.52207 14.2515
rtibia 52.4788
rfoot -17.1944 -13.6473
rtoes 16.0851
lfemur -20.8339 23.2421 -23.7666
ltibia 47.6604
lfoot -26.3942 17.1753
ltoes -8.75603
1951
root 49.6948 15.7698 -7.95439 362.122 -45.6567 -1081.4
lowerback 13.6009 -0.359197 -7.32203
upperback 8.81861 -1.49381 -0.365167
thorax 1.90132 -1.15056 3.9011
lowerneck 5.10535 -12.1981 -10.4669
upperneck -9.89272 -15.8669 25.3626
head -0.643631 -8.83179 9.50914
rclavicle 1.21656e-013 -2.54444e-014
rhumerus -22.551 13.9476 -76.0863
rradius 69.6427
rwrist 3.93212
rhand -42.2072 18.5706
rfingers 7.12502
rthumb -15.0947 -10.859
lclavicle 1.21656e-013 -2.54444e-014
lhumerus 4.54292 -31.4615 67.7665
lradius 81.5288
lwrist 15.9334
lhand -31.6624 21.4349
lfingers 7.12502
lthumb -4.92274 51.3577
rfemur -42.9012 -5.71045 14.2156
rtibia 52.2326
rfoot -16.8539 -14.0778
rtoes 16.3439
lfemur -21.0882 23.5124 -23.9269
ltibia 47.9711
lfoot -26.5851 17.5528
ltoes -8.61526
1952
root 49.7177 15.7566 -7.94802 362.164 -46.335 -1081.41
lowerback 13.7591 -0.355663 -7.35079
upperback 8.90755 -1.51026 -0.307318
thorax 1.91781 -1.16836 3.98226
lowerneck 5.06496 -12.0739 -10.3215
upperneck -10.2058 -15.6332 25.29
head -0.787773 -8.73263 9.49537
rclavicle -1.08139e-013 3.10104e-014
rhumerus -22.1187 13.6773 -75.7761
rradius 69.9407
rwrist 4.00418
rhand -42.2304 18.62
rfingers 7.12502
rthumb -15.1171 -10.8079
lclavicle -1.08139e-013 3.10104e-014
lhumerus 5.08833 -31.7417 67.4853
lradius 81.8101
lwrist 15.7881
lhand -31.774 21.4184
lfingers 7.12502
lthumb -5.03047 51.3387
rfemur -43.2371 -5.89406 14.1834
rtibia 51.9699
rfoot -16.6532 -14.433
rtoes 16.4109
lfemur -21.311 23.7483 -24.0631
ltibia 48.2716
lfoot -26.7531 17.917
ltoes -8.52327
1953
root 49.7373 15.7439 -7.94173 362.203 -46.9685 -1081.43
lowerback 13.9202 -0.358374 -7.39069
upperback 8.99501 -1.53641 -0.241147
thorax 1.9335 -1.19172 4.07977
lowerneck 5.03356 -11.9513 -10.1999
upperneck -10.5192 -15.405 25.2222
head -0.929571 -8.63614 9.48674
rclavicle -7.71285e-014 5.725e-014
rhumerus -21.7171 13.4188 -75.4858
rradius 70.2479
rwrist 4.07155
rhand -42.2802 18.7041
rfingers 7.12502
rthumb -15.1651 -10.7202
lclavicle -7.71285e-014 5.725e-014
lhumerus 5.59027 -32.0216 67.1945
lradius 82.0979
lwrist 15.6702
lhand -31.9158 21.3882
lfingers 7.12502
lthumb -5.16738 51.3052
rfemur -43.5291 -6.06325 14.155
rtibia 51.6894
rfoot -16.5766 -14.6895
rtoes 16.2998
lfemur -21.5121 23.957 -24.1789
ltibia 48.5588
lfoot -26.9055 18.2634
ltoes -8.42724
